<?xml version="1.0" encoding="UTF-8" standalone="no"?>
<!DOCTYPE svg PUBLIC "-//W3C//DTD SVG 1.0//EN" "http://www.w3.org/TR/2001/PR-SVG-20010719/DTD/svg10.dtd">
<svg width="55cm" height="32cm" viewBox="79 28 1090 625" xmlns="http://www.w3.org/2000/svg" xmlns:xlink="http://www.w3.org/1999/xlink">
  <g>
    <rect style="fill: #ffffff" x="444" y="167" width="379.6" height="28"/>
    <rect style="fill: none; fill-opacity:0; stroke-width: 2; stroke: #000000" x="444" y="167" width="379.6" height="28"/>
    <text font-size="16" style="fill: #000000;text-anchor:middle;font-family:sans-serif;font-style:normal;font-weight:700" x="633.8" y="186">Shape</text>
    <rect style="fill: #ffffff" x="444" y="195" width="379.6" height="84"/>
    <rect style="fill: none; fill-opacity:0; stroke-width: 2; stroke: #000000" x="444" y="195" width="379.6" height="84"/>
    <text font-size="12.8" style="fill: #000000;text-anchor:start;font-family:monospace;font-style:normal;font-weight:normal" x="447" y="209">-layer: int</text>
    <text font-size="12.8" style="fill: #000000;text-anchor:start;font-family:monospace;font-style:normal;font-weight:normal" x="447" y="225">-location: Point2d</text>
    <text font-size="12.8" style="fill: #000000;text-anchor:start;font-family:monospace;font-style:normal;font-weight:normal" x="447" y="241">-rotation: int</text>
    <text font-size="12.8" style="fill: #000000;text-anchor:start;font-family:monospace;font-style:normal;font-weight:normal" x="447" y="257">#width: float</text>
    <text font-size="12.8" style="fill: #000000;text-anchor:start;font-family:monospace;font-style:normal;font-weight:normal" x="447" y="273">#height: float</text>
    <rect style="fill: #ffffff" x="444" y="279" width="379.6" height="244"/>
    <rect style="fill: none; fill-opacity:0; stroke-width: 2; stroke: #000000" x="444" y="279" width="379.6" height="244"/>
    <text font-size="12.8" style="fill: #000000;text-anchor:start;font-family:monospace;font-style:normal;font-weight:normal" x="447" y="293">+Shape(w:float,h:float,loc:Point2d,rotate:int=0)</text>
    <text font-size="12.8" style="fill: #000000;text-anchor:start;font-family:monospace;font-style:normal;font-weight:normal" x="447" y="309">+setLayer(l:int): void</text>
    <text font-size="12.8" style="fill: #000000;text-anchor:start;font-family:monospace;font-style:normal;font-weight:normal" x="447" y="325">+setWidth(w:float): void</text>
    <text font-size="12.8" style="fill: #000000;text-anchor:start;font-family:monospace;font-style:normal;font-weight:normal" x="447" y="341">+setHeight(h:float): void</text>
    <text font-size="12.8" style="fill: #000000;text-anchor:start;font-family:monospace;font-style:normal;font-weight:normal" x="447" y="357">+setLocation(loc:Point2d): void</text>
    <text font-size="12.8" style="fill: #000000;text-anchor:start;font-family:monospace;font-style:normal;font-weight:normal" x="447" y="373">+chgLocation(delta:Point2d): void</text>
    <text font-size="12.8" style="fill: #000000;text-anchor:start;font-family:monospace;font-style:normal;font-weight:normal" x="447" y="389">+setRotation(degrees:int): void</text>
    <text font-size="12.8" style="fill: #000000;text-anchor:start;font-family:monospace;font-style:normal;font-weight:normal" x="447" y="405">+chgRotation(degrees:int): void</text>
    <text font-size="12.8" style="fill: #000000;text-anchor:start;font-family:monospace;font-style:normal;font-weight:normal" x="447" y="421">+getLayer(): int</text>
    <text font-size="12.8" style="fill: #000000;text-anchor:start;font-family:monospace;font-style:normal;font-weight:normal" x="447" y="437">+getWidth(): float</text>
    <text font-size="12.8" style="fill: #000000;text-anchor:start;font-family:monospace;font-style:normal;font-weight:normal" x="447" y="453">+getHeight(): float</text>
    <text font-size="12.8" style="fill: #000000;text-anchor:start;font-family:monospace;font-style:normal;font-weight:normal" x="447" y="469">+getLocation(): Point2d</text>
    <text font-size="12.8" style="fill: #000000;text-anchor:start;font-family:monospace;font-style:normal;font-weight:normal" x="447" y="485">+getRotation(): int</text>
    <text font-size="12.8" style="fill: #000000;text-anchor:start;font-family:monospace;font-style:italic;font-weight:normal" x="447" y="501">+area(): float</text>
    <text font-size="12.8" style="fill: #000000;text-anchor:start;font-family:monospace;font-style:italic;font-weight:normal" x="447" y="517">+perimeter(): float</text>
  </g>
  <g>
    <rect style="fill: #ffffff" x="510" y="29" width="248.7" height="28"/>
    <rect style="fill: none; fill-opacity:0; stroke-width: 2; stroke: #000000" x="510" y="29" width="248.7" height="28"/>
    <text font-size="16" style="fill: #000000;text-anchor:middle;font-family:sans-serif;font-style:normal;font-weight:700" x="634.35" y="48">Point2d</text>
    <rect style="fill: #ffffff" x="510" y="57" width="248.7" height="36"/>
    <rect style="fill: none; fill-opacity:0; stroke-width: 2; stroke: #000000" x="510" y="57" width="248.7" height="36"/>
    <text font-size="12.8" style="fill: #000000;text-anchor:start;font-family:monospace;font-style:normal;font-weight:normal" x="513" y="71">+x: int = 0</text>
    <text font-size="12.8" style="fill: #000000;text-anchor:start;font-family:monospace;font-style:normal;font-weight:normal" x="513" y="87">+y: int = 0</text>
    <rect style="fill: #ffffff" x="510" y="93" width="248.7" height="20"/>
    <rect style="fill: none; fill-opacity:0; stroke-width: 2; stroke: #000000" x="510" y="93" width="248.7" height="20"/>
    <text font-size="12.8" style="fill: #000000;text-anchor:start;font-family:monospace;font-style:normal;font-weight:normal" x="513" y="107">+Point2d(xValue:int,yValue:int)</text>
  </g>
  <g>
    <rect style="fill: #ffffff" x="680" y="580" width="310.3" height="28"/>
    <rect style="fill: none; fill-opacity:0; stroke-width: 2; stroke: #000000" x="680" y="580" width="310.3" height="28"/>
    <text font-size="16" style="fill: #000000;text-anchor:middle;font-family:sans-serif;font-style:normal;font-weight:700" x="835.15" y="599">Rectangle</text>
    <rect style="fill: #ffffff" x="680" y="608" width="310.3" height="8"/>
    <rect style="fill: none; fill-opacity:0; stroke-width: 2; stroke: #000000" x="680" y="608" width="310.3" height="8"/>
    <rect style="fill: #ffffff" x="680" y="616" width="310.3" height="36"/>
    <rect style="fill: none; fill-opacity:0; stroke-width: 2; stroke: #000000" x="680" y="616" width="310.3" height="36"/>
    <text font-size="12.8" style="fill: #000000;text-anchor:start;font-family:monospace;font-style:normal;font-weight:normal" x="683" y="630">+Rectangle(w:float,h:float,loc:Point2d,</text>
    <text font-size="12.8" style="fill: #000000;text-anchor:start;font-family:monospace;font-style:normal;font-weight:normal" x="683" y="646">           angle:int=0)</text>
  </g>
  <g>
    <rect style="fill: #ffffff" x="80" y="180" width="318" height="28"/>
    <rect style="fill: none; fill-opacity:0; stroke-width: 2; stroke: #000000" x="80" y="180" width="318" height="28"/>
    <text font-size="16" style="fill: #000000;text-anchor:middle;font-family:sans-serif;font-style:normal;font-weight:700" x="239" y="199">RightTriangle</text>
    <rect style="fill: #ffffff" x="80" y="208" width="318" height="20"/>
    <rect style="fill: none; fill-opacity:0; stroke-width: 2; stroke: #000000" x="80" y="208" width="318" height="20"/>
    <text font-size="12.8" style="fill: #000000;text-anchor:start;font-family:monospace;font-style:normal;font-weight:normal" x="83" y="222">+slopeAngle: int</text>
    <rect style="fill: #ffffff" x="80" y="228" width="318" height="100"/>
    <rect style="fill: none; fill-opacity:0; stroke-width: 2; stroke: #000000" x="80" y="228" width="318" height="100"/>
    <text font-size="12.8" style="fill: #000000;text-anchor:start;font-family:monospace;font-style:normal;font-weight:normal" x="83" y="242">+RightTriangle(w:float,h:float,</text>
    <text font-size="12.8" style="fill: #000000;text-anchor:start;font-family:monospace;font-style:normal;font-weight:normal" x="83" y="258">               loc:Point2d,rotate:int=0)</text>
    <text font-size="12.8" style="fill: #000000;text-anchor:start;font-family:monospace;font-style:normal;font-weight:normal" x="83" y="274">+setSlopeAngle(ang:int): bool</text>
    <text font-size="12.8" style="fill: #000000;text-anchor:start;font-family:monospace;font-style:normal;font-weight:normal" x="83" y="290">+hypotLength(): float</text>
    <text font-size="12.8" style="fill: #000000;text-anchor:start;font-family:monospace;font-style:normal;font-weight:normal" x="83" y="306">+getSlopeAngle(): int</text>
    <text font-size="12.8" style="fill: #000000;text-anchor:start;font-family:monospace;font-style:normal;font-weight:normal" x="83" y="322">+getSlope(): float</text>
  </g>
  <g>
    <rect style="fill: #ffffff" x="260" y="580" width="395" height="28"/>
    <rect style="fill: none; fill-opacity:0; stroke-width: 2; stroke: #000000" x="260" y="580" width="395" height="28"/>
    <text font-size="16" style="fill: #000000;text-anchor:middle;font-family:sans-serif;font-style:normal;font-weight:700" x="457.5" y="599">Ellipse</text>
    <rect style="fill: #ffffff" x="260" y="608" width="395" height="8"/>
    <rect style="fill: none; fill-opacity:0; stroke-width: 2; stroke: #000000" x="260" y="608" width="395" height="8"/>
    <rect style="fill: #ffffff" x="260" y="616" width="395" height="36"/>
    <rect style="fill: none; fill-opacity:0; stroke-width: 2; stroke: #000000" x="260" y="616" width="395" height="36"/>
    <text font-size="12.8" style="fill: #000000;text-anchor:start;font-family:monospace;font-style:normal;font-weight:normal" x="263" y="630">+Ellipse(w:float,h:float,loc:Point2d,rotate:int=0)</text>
    <text font-size="12.8" style="fill: #000000;text-anchor:start;font-family:monospace;font-style:normal;font-weight:normal" x="263" y="646">+isCircle(): bool</text>
  </g>
  <g>
    <rect style="fill: #ffffff" x="880" y="160" width="287.2" height="28"/>
    <rect style="fill: none; fill-opacity:0; stroke-width: 2; stroke: #000000" x="880" y="160" width="287.2" height="28"/>
    <text font-size="16" style="fill: #000000;text-anchor:middle;font-family:sans-serif;font-style:normal;font-weight:700" x="1023.6" y="179">RegularPolygon</text>
    <rect style="fill: #ffffff" x="880" y="188" width="287.2" height="36"/>
    <rect style="fill: none; fill-opacity:0; stroke-width: 2; stroke: #000000" x="880" y="188" width="287.2" height="36"/>
    <text font-size="12.8" style="fill: #000000;text-anchor:start;font-family:monospace;font-style:normal;font-weight:normal" x="883" y="202">-sides: int</text>
    <text font-size="12.8" style="fill: #000000;text-anchor:start;font-family:monospace;font-style:normal;font-weight:normal" x="883" y="218">-angles: float</text>
    <rect style="fill: #ffffff" x="880" y="224" width="287.2" height="68"/>
    <rect style="fill: none; fill-opacity:0; stroke-width: 2; stroke: #000000" x="880" y="224" width="287.2" height="68"/>
    <text font-size="12.8" style="fill: #000000;text-anchor:start;font-family:monospace;font-style:normal;font-weight:normal" x="883" y="238">+RegularPolygon(sides:int,w:float,</text>
    <text font-size="12.8" style="fill: #000000;text-anchor:start;font-family:monospace;font-style:normal;font-weight:normal" x="883" y="254">                h:float,loc:Point2d,</text>
    <text font-size="12.8" style="fill: #000000;text-anchor:start;font-family:monospace;font-style:normal;font-weight:normal" x="883" y="270">                rotate:int=0)</text>
    <text font-size="12.8" style="fill: #000000;text-anchor:start;font-family:monospace;font-style:normal;font-weight:normal" x="883" y="286">+RegularPolygon(sides:int)</text>
  </g>
  <g>
    <polyline style="fill: none; fill-opacity:0; stroke-width: 2; stroke: #000000" points="841.836,289 860,289 860,226 879.002,226 "/>
    <polygon style="fill: #ffffff" points="841.836,281 825.836,289 841.836,297 "/>
    <polygon style="fill: none; fill-opacity:0; stroke-width: 2; stroke: #000000" points="841.836,281 825.836,289 841.836,297 "/>
  </g>
  <g>
    <rect style="fill: #ffffff" x="880" y="320" width="248.7" height="28"/>
    <rect style="fill: none; fill-opacity:0; stroke-width: 2; stroke: #000000" x="880" y="320" width="248.7" height="28"/>
    <text font-size="16" style="fill: #000000;text-anchor:middle;font-family:sans-serif;font-style:normal;font-weight:700" x="1004.35" y="339">EquilTriangle</text>
    <rect style="fill: #ffffff" x="880" y="348" width="248.7" height="8"/>
    <rect style="fill: none; fill-opacity:0; stroke-width: 2; stroke: #000000" x="880" y="348" width="248.7" height="8"/>
    <rect style="fill: #ffffff" x="880" y="356" width="248.7" height="52"/>
    <rect style="fill: none; fill-opacity:0; stroke-width: 2; stroke: #000000" x="880" y="356" width="248.7" height="52"/>
    <text font-size="12.8" style="fill: #000000;text-anchor:start;font-family:monospace;font-style:normal;font-weight:normal" x="883" y="370">+EquilTriangle(w:float,h:float,</text>
    <text font-size="12.8" style="fill: #000000;text-anchor:start;font-family:monospace;font-style:normal;font-weight:normal" x="883" y="386">               loc:Point2d,</text>
    <text font-size="12.8" style="fill: #000000;text-anchor:start;font-family:monospace;font-style:normal;font-weight:normal" x="883" y="402">               rotate:int=0)</text>
  </g>
  <g>
    <rect style="fill: #ffffff" x="80" y="360" width="318" height="28"/>
    <rect style="fill: none; fill-opacity:0; stroke-width: 2; stroke: #000000" x="80" y="360" width="318" height="28"/>
    <text font-size="16" style="fill: #000000;text-anchor:middle;font-family:sans-serif;font-style:normal;font-weight:700" x="239" y="379">IsoscTriangle</text>
    <rect style="fill: #ffffff" x="80" y="388" width="318" height="36"/>
    <rect style="fill: none; fill-opacity:0; stroke-width: 2; stroke: #000000" x="80" y="388" width="318" height="36"/>
    <text font-size="12.8" style="fill: #000000;text-anchor:start;font-family:monospace;font-style:normal;font-weight:normal" x="83" y="402">-tipLoc: Point2d</text>
    <text font-size="12.8" style="fill: #000000;text-anchor:start;font-family:monospace;font-style:normal;font-weight:normal" x="83" y="418">-tipAngle: int</text>
    <rect style="fill: #ffffff" x="80" y="424" width="318" height="84"/>
    <rect style="fill: none; fill-opacity:0; stroke-width: 2; stroke: #000000" x="80" y="424" width="318" height="84"/>
    <text font-size="12.8" style="fill: #000000;text-anchor:start;font-family:monospace;font-style:normal;font-weight:normal" x="83" y="438">+IsoscTriangle(w:float,h:float,</text>
    <text font-size="12.8" style="fill: #000000;text-anchor:start;font-family:monospace;font-style:normal;font-weight:normal" x="83" y="454">               loc:Point2d,rotate:int=0)</text>
    <text font-size="12.8" style="fill: #000000;text-anchor:start;font-family:monospace;font-style:normal;font-weight:normal" x="83" y="470">+setTipAngle(angle:int): bool</text>
    <text font-size="12.8" style="fill: #000000;text-anchor:start;font-family:monospace;font-style:normal;font-weight:normal" x="83" y="486">+getTipAngle(): int</text>
    <text font-size="12.8" style="fill: #000000;text-anchor:start;font-family:monospace;font-style:normal;font-weight:normal" x="83" y="502">+sideLengths(): float</text>
  </g>
  <g>
    <polyline style="fill: none; fill-opacity:0; stroke-width: 2; stroke: #000000" points="841.836,289 860,289 860,364 879.013,364 "/>
    <polygon style="fill: #ffffff" points="841.836,281 825.836,289 841.836,297 "/>
    <polygon style="fill: none; fill-opacity:0; stroke-width: 2; stroke: #000000" points="841.836,281 825.836,289 841.836,297 "/>
  </g>
  <g>
    <polyline style="fill: none; fill-opacity:0; stroke-width: 2; stroke: #000000" points="634.35,139.137 634.35,141.003 633.8,141.003 633.8,167 "/>
    <polygon style="fill: #000000" points="634.35,113.966 639.15,127.966 634.35,141.966 629.55,127.966 "/>
    <polygon style="fill: none; fill-opacity:0; stroke-width: 2; stroke: #000000" points="634.35,113.966 639.15,127.966 634.35,141.966 629.55,127.966 "/>
    <text font-size="12.7998" style="fill: #000000;text-anchor:middle;font-family:monospace;font-style:normal;font-weight:normal" x="634.075" y="137.003"/>
    <text font-size="12.7998" style="fill: #000000;text-anchor:start;font-family:monospace;font-style:normal;font-weight:normal" x="645.35" y="125.966"/>
    <text font-size="12.7998" style="fill: #000000;text-anchor:start;font-family:monospace;font-style:normal;font-weight:normal" x="637.8" y="163"/>
  </g>
  <g>
    <polyline style="fill: none; fill-opacity:0; stroke-width: 2; stroke: #000000" points="424.758,345 413.002,345 413.002,434 399.01,434 "/>
    <polygon style="fill: #ffffff" points="424.758,353 440.758,345 424.758,337 "/>
    <polygon style="fill: none; fill-opacity:0; stroke-width: 2; stroke: #000000" points="424.758,353 440.758,345 424.758,337 "/>
  </g>
  <g>
    <polyline style="fill: none; fill-opacity:0; stroke-width: 2; stroke: #000000" points="424.758,345 413.002,345 413.002,254 399.01,254 "/>
    <polygon style="fill: #ffffff" points="424.758,353 440.758,345 424.758,337 "/>
    <polygon style="fill: none; fill-opacity:0; stroke-width: 2; stroke: #000000" points="424.758,353 440.758,345 424.758,337 "/>
  </g>
  <g>
    <polyline style="fill: none; fill-opacity:0; stroke-width: 2; stroke: #000000" points="633.8,542.242 633.8,559.498 457.5,559.498 457.5,578.991 "/>
    <polygon style="fill: #ffffff" points="641.8,542.242 633.8,526.242 625.8,542.242 "/>
    <polygon style="fill: none; fill-opacity:0; stroke-width: 2; stroke: #000000" points="641.8,542.242 633.8,526.242 625.8,542.242 "/>
  </g>
  <g>
    <polyline style="fill: none; fill-opacity:0; stroke-width: 2; stroke: #000000" points="633.8,542.242 633.8,559.498 835.15,559.498 835.15,578.991 "/>
    <polygon style="fill: #ffffff" points="641.8,542.242 633.8,526.242 625.8,542.242 "/>
    <polygon style="fill: none; fill-opacity:0; stroke-width: 2; stroke: #000000" points="641.8,542.242 633.8,526.242 625.8,542.242 "/>
  </g>
</svg>
